<svg width="356" height="104" viewBox="0 0 356 104" fill="none" xmlns="http://www.w3.org/2000/svg">
<path d="M0 38.0915C0 32.3084 2.04413 27.3715 6.13363 23.2769C10.2231 19.1822 15.1591 17.1362 20.9367 17.1362C26.7167 17.1362 31.6502 19.181 35.7384 23.2769C39.8279 27.3702 41.8733 32.3072 41.8733 38.0915C41.8733 43.877 39.8292 48.8151 35.7384 52.9085C31.6514 57.0031 26.7179 59.0492 20.9367 59.0492C16.1621 59.0492 11.9777 57.6679 8.37614 54.9016V75.8149H0V38.0915ZM20.9354 50.6651C24.3965 50.6651 27.3561 49.4367 29.8131 46.9763C32.2687 44.5183 33.4972 41.5571 33.4972 38.0915C33.4972 34.6271 32.2687 31.6659 29.8131 29.2079C27.3561 26.7486 24.3965 25.519 20.9354 25.519C17.4731 25.519 14.5147 26.7486 12.0578 29.2079C9.60213 31.6659 8.37491 34.6283 8.37491 38.0915C8.37491 41.5583 9.60213 44.5183 12.0578 46.9763C14.5147 49.4367 17.4743 50.6651 20.9354 50.6651Z" fill="#37A2DB"/>
<path d="M81.7988 23.2769C85.8883 27.3702 87.9324 32.3072 87.9324 38.0915C87.9324 43.877 85.8895 48.8151 81.7988 52.9085C77.7093 57.0031 72.7745 59.0492 66.997 59.0492C61.2194 59.0492 56.2834 57.0044 52.1927 52.9085C48.1032 48.8164 46.0591 43.8782 46.0591 38.0915C46.0591 32.3084 48.102 27.3715 52.1927 23.2769C56.2822 19.1822 61.2182 17.1362 66.997 17.1362C72.7745 17.1374 77.708 19.1822 81.7988 23.2769ZM66.997 25.519C63.5334 25.519 60.5762 26.7486 58.1206 29.2079C55.6637 31.6659 54.4352 34.6283 54.4352 38.0915C54.4352 41.5583 55.6637 44.5183 58.1206 46.9763C60.5762 49.4367 63.5346 50.6651 66.997 50.6651C70.4581 50.6651 73.4165 49.4367 75.8746 46.9763C78.329 44.5183 79.5575 41.5571 79.5575 38.0915C79.5575 34.6271 78.329 31.6659 75.8746 29.2079C73.4165 26.7486 70.4581 25.519 66.997 25.519Z" fill="#37A2DB"/>
<path d="M100.496 59.0478H92.1189V0H100.496V59.0478Z" fill="#37A2DB"/>
<path d="M138.18 54.9002C134.578 57.6666 130.391 59.0479 125.618 59.0479C119.839 59.0479 114.906 57.003 110.816 52.9072C106.727 48.815 104.681 43.8768 104.681 38.0901C104.681 32.3071 106.727 27.3701 110.816 23.2755C114.904 19.1809 119.838 17.1348 125.618 17.1348C131.398 17.1348 136.329 19.1797 140.421 23.2755C144.508 27.3689 146.556 32.3059 146.556 38.0901V59.0466H138.181V54.9002H138.18ZM125.617 25.5189C122.156 25.5189 119.196 26.7485 116.739 29.2078C114.285 31.6658 113.059 34.6282 113.059 38.0914C113.059 41.5582 114.285 44.5182 116.739 46.9762C119.196 49.4366 122.156 50.665 125.617 50.665C129.078 50.665 132.036 49.4366 134.494 46.9762C136.95 44.5182 138.179 41.557 138.179 38.0914C138.179 34.627 136.95 31.6658 134.494 29.2078C132.036 26.7485 129.078 25.5189 125.617 25.5189Z" fill="#37A2DB"/>
<path d="M159.117 38.0915V59.048H150.74V38.0915C150.74 32.3084 152.787 27.3715 156.877 23.2769C160.964 19.1822 165.898 17.1362 171.678 17.1362V25.5178C168.215 25.5178 165.258 26.7474 162.801 29.2066C160.344 31.6659 159.117 34.6271 159.117 38.0915Z" fill="#37A2DB"/>
<path d="M208.694 42.2822H217.363C216.579 46.3077 214.667 49.8412 211.624 52.8862C207.521 56.9932 202.58 59.0479 196.803 59.0479C191.024 59.0479 186.091 57.003 181.999 52.9072C177.909 48.815 175.864 43.8768 175.864 38.0901C175.864 32.3071 177.908 27.3701 181.999 23.2755C186.089 19.1809 191.023 17.1348 196.803 17.1348C202.58 17.1348 207.521 19.1747 211.624 23.2533C214.668 26.3255 216.579 29.8762 217.363 33.8993H208.694C208.08 32.1665 207.074 30.6027 205.679 29.2053C203.222 26.7461 200.263 25.5164 196.803 25.5164C193.339 25.5164 190.38 26.7461 187.925 29.2053C185.468 31.6633 184.24 34.6257 184.24 38.0889C184.24 41.5557 185.468 44.5157 187.925 46.9737C190.38 49.4342 193.341 50.6626 196.803 50.6626C200.264 50.6626 203.222 49.4342 205.679 46.9737C207.074 45.5801 208.08 44.0162 208.694 42.2822Z" fill="#333333"/>
<path d="M255.426 54.9002C251.825 57.6666 247.638 59.0479 242.863 59.0479C237.086 59.0479 232.151 57.003 228.061 52.9072C223.972 48.815 221.927 43.8768 221.927 38.0901C221.927 32.3071 223.971 27.3701 228.061 23.2755C232.15 19.1809 237.084 17.1348 242.863 17.1348C248.642 17.1348 253.577 19.1797 257.665 23.2755C261.755 27.3689 263.8 32.3059 263.8 38.0901V59.0466H255.427V54.9002H255.426ZM242.862 25.5189C239.398 25.5189 236.44 26.7485 233.984 29.2078C231.529 31.6658 230.299 34.6282 230.299 38.0914C230.299 41.5582 231.529 44.5182 233.984 46.9762C236.44 49.4366 239.4 50.665 242.862 50.665C246.323 50.665 249.283 49.4366 251.738 46.9762C254.195 44.5182 255.425 41.557 255.425 38.0914C255.425 34.627 254.195 31.6658 251.738 29.2078C249.283 26.7485 246.323 25.5189 242.862 25.5189Z" fill="#333333"/>
<path d="M267.986 38.0915C267.986 32.3084 270.031 27.3715 274.121 23.2769C278.212 19.1822 283.143 17.1362 288.924 17.1362C294.702 17.1362 299.635 19.181 303.726 23.2769C307.816 27.3702 309.861 32.3072 309.861 38.0915C309.861 43.8769 307.816 48.8151 303.726 52.9085C299.637 57.0031 294.703 59.0492 288.924 59.0492C284.15 59.0492 279.963 57.6679 276.361 54.9016V76.2096H267.988L267.986 38.0915ZM288.923 50.6651C292.384 50.6651 295.344 49.4367 297.799 46.9763C300.256 44.5183 301.484 41.5571 301.484 38.0915C301.484 34.6271 300.256 31.6659 297.799 29.2079C295.344 26.7486 292.383 25.519 288.923 25.519C285.461 25.519 282.5 26.7486 280.047 29.2079C277.59 31.6659 276.36 34.6283 276.36 38.0915C276.36 41.5583 277.59 44.5183 280.047 46.9763C282.5 49.4367 285.462 50.6651 288.923 50.6651Z" fill="#333333"/>
<path d="M344.321 46.4742H354.243C353.209 48.8224 351.729 50.9585 349.804 52.8862C345.703 56.9932 340.759 59.0479 334.982 59.0479C329.205 59.0479 324.271 57.003 320.179 52.9072C316.09 48.815 314.046 43.8768 314.046 38.0901C314.046 32.3071 316.089 27.3701 320.179 23.2755C324.269 19.1809 329.205 17.1348 334.982 17.1348C340.759 17.1348 345.695 19.1797 349.783 23.2755C353.873 27.3689 355.918 32.3059 355.918 38.0901C355.918 39.5454 355.793 40.9415 355.54 42.2809H323.089C323.703 44.0137 324.707 45.5788 326.104 46.9749C328.56 49.4354 331.519 50.6638 334.98 50.6638C338.441 50.6638 341.404 49.4354 343.858 46.9749C344.027 46.8084 344.18 46.6432 344.321 46.4742ZM346.876 33.9005C346.258 32.1677 345.254 30.6039 343.859 29.2065C341.405 26.7473 338.443 25.5177 334.982 25.5177C331.519 25.5177 328.561 26.7473 326.105 29.2065C324.708 30.6039 323.704 32.1665 323.09 33.9005H346.876Z" fill="#333333"/>
<path d="M237.532 96.9934C236.842 97.3264 235.314 97.8346 233.366 97.8346C228.99 97.8346 226.143 94.866 226.143 90.426C226.143 85.9552 229.2 82.687 233.935 82.687C235.494 82.687 236.87 83.0754 237.592 83.4676L236.992 85.4755C236.362 85.1462 235.374 84.7873 233.936 84.7873C230.611 84.7873 228.813 87.2774 228.813 90.2756C228.813 93.6351 230.97 95.7034 233.848 95.7034C235.345 95.7034 236.335 95.3445 237.083 95.014L237.532 96.9934Z" fill="#333333"/>
<path d="M253.57 90.1275C253.57 95.4973 249.825 97.8345 246.347 97.8345C242.454 97.8345 239.394 94.9547 239.394 90.3655C239.394 85.5383 242.601 82.6856 246.587 82.6856C250.752 82.6868 253.57 85.7171 253.57 90.1275ZM242.092 90.2754C242.092 93.4549 243.891 95.855 246.468 95.855C248.984 95.855 250.872 93.4845 250.872 90.2162C250.872 87.757 249.645 84.6663 246.526 84.6663C243.441 84.6663 242.092 87.5449 242.092 90.2754Z" fill="#333333"/>
<path d="M256.902 86.916C256.902 85.3891 256.874 84.1867 256.782 82.9879H259.12L259.269 85.3879H259.329C260.049 84.035 261.726 82.687 264.125 82.687C266.133 82.687 269.249 83.8882 269.249 88.8671V97.5065H266.611V89.136C266.611 86.7976 265.741 84.8477 263.254 84.8477C261.546 84.8477 260.199 86.0773 259.719 87.5462C259.597 87.8767 259.538 88.3269 259.538 88.7771V97.5065H256.901V86.916H256.902Z" fill="#333333"/>
<path d="M273.179 94.8363C273.987 95.316 275.366 95.855 276.687 95.855C278.573 95.855 279.472 94.9251 279.472 93.6967C279.472 92.4375 278.723 91.7764 276.806 91.0549C274.167 90.0942 272.94 88.6857 272.94 86.9467C272.94 84.6071 274.858 82.6856 277.945 82.6856C279.413 82.6856 280.702 83.0741 281.481 83.5859L280.851 85.5062C280.282 85.1448 279.233 84.6367 277.884 84.6367C276.326 84.6367 275.488 85.537 275.488 86.615C275.488 87.8162 276.327 88.3527 278.216 89.105C280.703 90.0362 282.019 91.2942 282.019 93.4537C282.019 96.0326 280.012 97.8332 276.627 97.8332C275.038 97.8332 273.572 97.4139 272.55 96.8133L273.179 94.8363Z" fill="#333333"/>
<path d="M297.546 93.5157C297.546 95.045 297.577 96.3672 297.667 97.5055H295.33L295.179 95.1351H295.118C294.459 96.3043 292.901 97.8336 290.324 97.8336C288.045 97.8336 285.318 96.5448 285.318 91.4758V82.9869H287.956V90.9961C287.956 93.7538 288.825 95.6457 291.193 95.6457C292.961 95.6457 294.189 94.4148 294.667 93.216C294.818 92.8547 294.908 92.3761 294.908 91.8643V82.9869H297.545V93.5157H297.546Z" fill="#333333"/>
<path d="M301.93 76.2097H304.567V97.5066H301.93V76.2097Z" fill="#333333"/>
<path d="M312.179 79.5077V82.9881H315.955V84.9972H312.179V92.8263C312.179 94.6257 312.691 95.6469 314.158 95.6469C314.877 95.6469 315.295 95.5865 315.685 95.4668L315.804 97.4747C315.295 97.6548 314.487 97.8348 313.468 97.8348C312.24 97.8348 311.252 97.4155 310.622 96.7261C309.902 95.917 309.603 94.6257 309.603 92.9163V84.9972H307.356V82.9881H309.603V80.2884L312.179 79.5077Z" fill="#333333"/>
<path d="M321.865 78.9067C321.865 79.807 321.235 80.5273 320.187 80.5273C319.228 80.5273 318.598 79.807 318.598 78.9067C318.598 78.0076 319.256 77.2565 320.248 77.2565C321.206 77.2578 321.865 77.978 321.865 78.9067ZM318.927 97.5064V82.9878H321.564V97.5051H318.927V97.5064Z" fill="#333333"/>
<path d="M325.941 86.916C325.941 85.3891 325.912 84.1867 325.821 82.9879H328.157L328.308 85.3879H328.369C329.089 84.035 330.766 82.687 333.165 82.687C335.171 82.687 338.288 83.8882 338.288 88.8671V97.5065H335.65V89.136C335.65 86.7976 334.781 84.8477 332.294 84.8477C330.586 84.8477 329.238 86.0773 328.757 87.5462C328.637 87.8767 328.578 88.3269 328.578 88.7771V97.5065H325.94V86.916H325.941Z" fill="#333333"/>
<path d="M354.986 95.374C354.986 98.7348 354.295 100.745 352.917 102.035C351.478 103.325 349.44 103.774 347.612 103.774C345.874 103.774 343.957 103.352 342.787 102.573L343.446 100.534C344.404 101.164 345.904 101.705 347.7 101.705C350.398 101.705 352.376 100.294 352.376 96.6048V95.0139H352.316C351.536 96.3656 349.949 97.4447 347.7 97.4447C344.106 97.4447 341.527 94.3861 341.527 90.3655C341.527 85.447 344.733 82.6856 348.09 82.6856C350.608 82.6856 351.958 83.9769 352.617 85.1769H352.677L352.766 82.9878H355.103C355.013 84.0065 354.984 85.2065 354.984 86.948V95.374H354.986ZM352.348 88.7165C352.348 88.2688 352.319 87.8754 352.199 87.5461C351.72 85.9872 350.46 84.728 348.514 84.728C345.995 84.728 344.199 86.8592 344.199 90.2175C344.199 93.0689 345.666 95.4344 348.483 95.4344C350.133 95.4344 351.599 94.4157 352.14 92.7359C352.289 92.287 352.349 91.7776 352.349 91.325V88.7165H352.348Z" fill="#333333"/>
</svg>
